<svg width="40" height="40" viewBox="0 0 40 40" fill="none" xmlns="http://www.w3.org/2000/svg">
<g clip-path="url(#clip0)">
<path d="M2.3615 18.3886H16.1754C16.2143 18.3886 16.2458 18.3569 16.2458 18.3181C16.2458 16.8747 15.0716 15.7004 13.6282 15.7004H2.3615C1.62041 15.7004 1.01746 16.3034 1.01746 17.0446C1.01746 17.7857 1.62041 18.3886 2.3615 18.3886Z" fill="white"/>
<path d="M7.06612 25.3303C5.32206 25.3303 3.73575 25.999 2.59942 27.2134C1.56431 28.3195 0.953305 29.8068 0.853634 31.442C0.837842 31.7011 1.04399 31.9201 1.30353 31.9201H13.5725C13.5725 28.2249 10.7146 25.3303 7.06612 25.3303Z" fill="white"/>
<path d="M32.089 20.5264L30.9131 14.9514C30.6975 14.9782 30.4784 14.9936 30.2558 14.9936H25.6536C25.0093 15.9237 24.6312 17.0522 24.6312 18.2696V25.3853C24.6312 26.1124 24.0418 26.7018 23.3147 26.7018H18.2634C17.6802 26.7018 17.1665 26.3181 17.001 25.7589L15.56 20.8894H3.84843C1.88266 22.1031 0.453957 24.1025 0 26.4497C1.5602 24.2233 4.09483 22.8294 7.06607 22.8294C12.1169 22.8294 16.0734 26.8225 16.0734 31.9201C16.0734 31.9304 16.0721 31.9402 16.0718 31.9504H27.367C27.6903 29.5035 29.1813 27.42 31.2607 26.2806L32.089 20.5264Z" fill="white"/>
<path d="M17.9138 9.68496C17.9138 10.3755 18.4737 10.9354 19.1643 10.9354H21.9864V8.43457H19.1643C18.4736 8.43457 17.9138 8.99437 17.9138 9.68496Z" fill="white"/>
<path d="M33.0628 9.73987C33.0929 8.16583 31.7745 6.87744 30.2002 6.87744H25.0237C24.7272 6.87744 24.4869 7.11775 24.4869 7.41419V11.9559C24.4869 12.2524 24.7272 12.4927 25.0237 12.4927H30.2556C31.788 12.4928 33.0336 11.2653 33.0628 9.73987Z" fill="white"/>
<path d="M39.4066 26.8343C39.4599 26.8737 39.524 26.8955 39.5903 26.8955C39.7676 26.8955 39.911 26.7468 39.9003 26.5698C39.7317 23.7878 37.4128 21.729 34.5769 21.729H34.4426L33.912 25.4148C34.2357 25.3726 34.5658 25.3506 34.9008 25.3506C36.5862 25.3506 38.1449 25.9023 39.4066 26.8343Z" fill="white"/>
<path d="M7.15332 38.0499C9.48243 38.0499 11.4455 36.4878 12.0553 34.3545H2.25134C2.86118 36.4877 4.82413 38.0499 7.15332 38.0499Z" fill="white"/>
<path d="M2.94176 9.57492H14.1568C14.8473 9.57492 15.4072 9.01504 15.4072 8.32445C15.4072 7.63386 14.8473 7.07397 14.1568 7.07397H2.94176C2.25117 7.07397 1.69128 7.63386 1.69128 8.32445C1.69128 9.01504 2.25117 9.57492 2.94176 9.57492Z" fill="white"/>
<path d="M7.09605 4.45089H18.4077C19.0983 4.45089 19.6581 3.89101 19.6581 3.20042C19.6581 2.50983 19.0983 1.94995 18.4077 1.94995H7.09605C6.40546 1.94995 5.84558 2.50983 5.84558 3.20042C5.84558 3.89101 6.40546 4.45089 7.09605 4.45089Z" fill="white"/>
<path d="M34.9007 27.8516C34.4086 27.8516 33.9334 27.9227 33.4832 28.0527C33.4832 28.0527 32.6973 28.2505 32.0161 28.7462C30.6788 29.6654 29.8014 31.2054 29.8014 32.9508C29.8014 35.767 32.0844 38.0501 34.9007 38.0501C37.7169 38.0501 39.9999 35.7671 39.9999 32.9508C39.9999 30.1346 37.7169 27.8516 34.9007 27.8516ZM34.9007 34.2095C34.2055 34.2095 33.6419 33.646 33.6419 32.9509C33.6419 32.2557 34.2055 31.6921 34.9007 31.6921C35.5959 31.6921 36.1594 32.2557 36.1594 32.9509C36.1594 33.646 35.5959 34.2095 34.9007 34.2095Z" fill="white"/>
</g>
<defs>
<clipPath id="clip0">
<rect width="40" height="40" fill="white"/>
</clipPath>
</defs>
</svg>
