<svg width="25" height="25" viewBox="0 0 25 25" fill="none" xmlns="http://www.w3.org/2000/svg">
<path d="M21.3379 0H3.66211C1.6428 0 0 1.6428 0 3.66211V21.3379C0 23.3572 1.6428 25 3.66211 25H11.7676V16.1133H9.08203V10.9863H11.7676V8.05664C11.7676 5.63354 13.739 3.66211 16.1621 3.66211H20.3125V8.78906H16.8945V10.9863H20.4735L19.4481 16.1133H16.8945V25H21.3379C23.3572 25 25 23.3572 25 21.3379V3.66211C25 1.6428 23.3572 0 21.3379 0Z" fill="#BDBDBD"/>
<path d="M18.6867 12.4512H15.4297V7.32422H18.8477V5.12695H16.1621C14.5466 5.12695 13.2324 6.44112 13.2324 8.05664V12.4512H10.5469V14.6484H13.2324V25H15.4297V14.6484H18.2472L18.6867 12.4512Z" fill="#BDBDBD"/>
</svg>
