<svg width="40" height="40" viewBox="0 0 40 40" fill="none" xmlns="http://www.w3.org/2000/svg">
<g clip-path="url(#clip0)">
<path d="M31.7418 7.04468H29.3935C28.7445 7.04468 28.2192 7.56983 28.2192 8.21889C28.2192 8.86788 28.7444 9.39311 29.3935 9.39311H31.7418C32.3908 9.39311 32.916 8.86796 32.916 8.21889C32.916 7.56983 32.3908 7.04468 31.7418 7.04468Z" fill="white"/>
<path d="M19.8762 2.99679L18.7021 0.648439C18.4097 0.0682054 17.7068 -0.164529 17.1265 0.123283C16.5463 0.413361 16.3112 1.11859 16.6014 1.69883L17.7756 4.04718C18.0653 4.62507 18.767 4.86249 19.3511 4.57234C19.9312 4.28226 20.1663 3.57703 19.8762 2.99679Z" fill="white"/>
<path d="M27.5703 0.123514C26.9923 -0.164298 26.2849 0.0685136 25.9948 0.648669L24.8206 2.99702C24.5305 3.57726 24.7656 4.28241 25.3457 4.57257C25.9316 4.8635 26.6324 4.62335 26.9213 4.04741L28.0955 1.69906C28.3855 1.11882 28.1505 0.413591 27.5703 0.123514Z" fill="white"/>
<path d="M15.3033 7.04468H12.955C12.306 7.04468 11.7808 7.56983 11.7808 8.21889C11.7808 8.86788 12.3059 9.39311 12.955 9.39311H15.3033C15.9523 9.39311 16.4776 8.86796 16.4776 8.21889C16.4776 7.56983 15.9523 7.04468 15.3033 7.04468Z" fill="white"/>
<path d="M8.25821 18.8647H3.56142C2.91299 18.8647 2.38721 19.3904 2.38721 20.039V38.8258C2.38721 39.4742 2.91291 40 3.56142 40H8.25813C8.90657 40 9.43235 39.4743 9.43235 38.8258V20.0389C9.43235 19.3904 8.90673 18.8647 8.25821 18.8647Z" fill="white"/>
<path d="M37.5894 21.9772C37.3823 20.1557 35.6808 18.8647 33.8476 18.8647H24.6933C25.4713 17.4716 25.8889 13.5315 25.8703 11.922C25.8396 9.2578 23.6333 7.1228 20.969 7.1228H20.0001C19.3511 7.1228 18.8259 7.64796 18.8259 8.29702C18.8259 11.0122 17.7686 15.9132 15.7747 17.9072C14.4326 19.2493 13.2852 19.7357 11.7808 20.4875V38.1061C14.0841 38.8738 17.0086 40 21.4662 40H29.1471C31.678 40 33.6491 37.656 32.6684 35.1795C34.1625 34.7724 35.2644 33.4021 35.2644 31.7807C35.2644 31.3232 35.1761 30.8852 35.0167 30.4827C37.5346 29.7967 38.4614 26.6877 36.7138 24.7356C37.3559 24.0183 37.7099 23.0372 37.5894 21.9772Z" fill="white"/>
</g>
<defs>
<clipPath id="clip0">
<rect width="40" height="40" fill="white"/>
</clipPath>
</defs>
</svg>
