<svg width="30" height="30" viewBox="0 0 30 30" fill="none" xmlns="http://www.w3.org/2000/svg">
<g clip-path="url(#clip0)">
<path d="M15.1219 0.163999L12.5319 0.00100491C12.3186 -0.0124946 12.1203 0.111064 12.0385 0.308495L9.75703 5.82381L7.37611 11.5771L5.74167 15.527L3.07126 21.9818L0.0388571 29.3085C-0.0668894 29.5636 0.0541691 29.8561 0.309223 29.9619C0.369971 29.9871 0.435094 30 0.500842 30C0.573777 30.0003 0.645899 29.9842 0.711835 29.953L8.50058 26.3271V28.5001C8.50058 29.3285 9.17212 30 10.0005 30C10.8289 30 11.5005 29.3285 11.5005 28.5001V27.4146C12.2815 27.6907 13.1385 27.2814 13.4146 26.5004C13.4714 26.3398 13.5004 26.1706 13.5004 26.0001V24.0002L18.4962 21.6748L18.5002 23.0002C18.5002 23.8286 19.1718 24.5002 20.0002 24.5002C20.8286 24.5002 21.5001 23.8286 21.5001 23.0002V22.4148C22.2812 22.6909 23.1381 22.2816 23.4143 21.5006C23.4711 21.3399 23.5001 21.1707 23.5001 21.0003V19.3204L29.7094 16.4545C29.8864 16.3727 29.9999 16.1955 29.9999 16.0005C29.9862 7.62675 23.4785 0.699732 15.1219 0.163999ZM10.5595 6.50979C11.173 6.52279 11.7681 6.72134 12.2665 7.07927C12.286 7.09427 12.3079 7.11177 12.3299 7.12927C12.3909 7.17577 12.4499 7.22526 12.5074 7.27676C12.5399 7.30626 12.5729 7.33576 12.6039 7.36676C12.6539 7.41376 12.6974 7.46676 12.7424 7.51675C12.7959 7.57675 12.8464 7.63825 12.8924 7.70275C12.9279 7.75275 12.9649 7.79674 12.9979 7.84624C13.0234 7.88474 13.0454 7.92574 13.0694 7.96524C13.0999 8.01524 13.1314 8.06824 13.1589 8.12173C13.1769 8.15673 13.1929 8.19273 13.2089 8.22873C13.2384 8.29123 13.2664 8.35423 13.2914 8.41872C13.3029 8.44822 13.3134 8.47872 13.3239 8.50872C13.3499 8.58322 13.3739 8.65872 13.3939 8.73471C13.3999 8.75871 13.4064 8.78471 13.4119 8.80671C13.4319 8.89021 13.4479 8.97521 13.4619 9.0607C13.4654 9.0807 13.4689 9.1012 13.4714 9.1212C13.4824 9.2087 13.4889 9.29719 13.4924 9.38569C13.4924 9.40719 13.4954 9.42869 13.4959 9.45019C13.4959 9.53019 13.4934 9.61119 13.4889 9.69168C13.4889 9.72418 13.4889 9.75718 13.4839 9.79168C13.4799 9.83668 13.4714 9.88118 13.4654 9.92617C13.45 10.0346 13.4286 10.1421 13.4014 10.2482C13.3859 10.3107 13.3694 10.3727 13.3514 10.4337C13.3279 10.5062 13.3014 10.5782 13.2729 10.6482C13.2569 10.6871 13.2379 10.7251 13.2199 10.7636C13.169 10.8732 13.1116 10.9795 13.0479 11.0821C13.0154 11.1321 12.9834 11.1846 12.9479 11.2321C12.9124 11.2796 12.8769 11.3321 12.8394 11.3771C12.7696 11.4644 12.6952 11.5479 12.6164 11.6271C12.5864 11.6566 12.5539 11.6836 12.5229 11.7121C12.4563 11.7721 12.3883 11.8291 12.3189 11.8831C12.2815 11.9116 12.2445 11.9411 12.2055 11.9681C12.1122 12.033 12.0154 12.0926 11.9155 12.1466C11.8655 12.1721 11.818 12.1966 11.7685 12.2176C11.7018 12.2486 11.6352 12.2771 11.5685 12.3031C11.514 12.3236 11.4605 12.3456 11.405 12.3631C11.2956 12.3977 11.1842 12.4256 11.0715 12.4466C11.024 12.4561 10.975 12.4621 10.927 12.4691C10.848 12.4796 10.769 12.4886 10.6905 12.4931C10.6545 12.4931 10.618 12.4976 10.5815 12.4986C10.526 12.4986 10.471 12.4961 10.416 12.4941C10.2798 12.4902 10.144 12.4772 10.0095 12.4551C9.97103 12.4486 9.93203 12.4451 9.89353 12.4371C9.7316 12.4031 9.57273 12.3558 9.41855 12.2956C9.38455 12.2826 9.35155 12.2661 9.31855 12.2516C9.18399 12.1939 9.05399 12.1262 8.92956 12.0491C8.90406 12.0336 8.87956 12.0201 8.85306 12.0036C8.71094 11.9086 8.57714 11.8017 8.45308 11.6841C8.44458 11.6766 8.43708 11.6676 8.42858 11.6596L10.5595 6.50979ZM6.46814 16.386L6.47814 16.391C6.50064 16.4075 6.52264 16.425 6.54664 16.4395C6.65214 16.5026 6.75351 16.5725 6.85013 16.6485C6.89113 16.6805 6.92963 16.716 6.96863 16.7484C7.04394 16.8139 7.11587 16.8831 7.18412 16.9559C7.22012 16.9944 7.25562 17.0334 7.28962 17.0739C7.35849 17.1562 7.42274 17.2421 7.48211 17.3314C7.50511 17.3649 7.52961 17.3974 7.55111 17.4314C7.71116 17.6909 7.83066 17.9733 7.9056 18.2689C7.91359 18.2989 7.91809 18.3294 7.92459 18.3594C7.95066 18.478 7.96972 18.598 7.98159 18.7189C7.98559 18.7639 7.98859 18.8094 7.99059 18.8544C7.9989 18.9906 7.99778 19.1273 7.98709 19.2634C7.98709 19.2729 7.98709 19.2829 7.98709 19.2924C7.97159 19.4417 7.94472 19.5896 7.9066 19.7348C7.8991 19.7648 7.8921 19.7953 7.8836 19.8248C7.84341 19.9636 7.79329 20.0993 7.7336 20.2308C7.7236 20.2528 7.7126 20.2748 7.7021 20.2968C7.56404 20.5826 7.38186 20.8448 7.16212 21.0738L7.15862 21.0778C7.04812 21.1917 6.92875 21.2967 6.80163 21.3918L6.77113 21.4148C6.64576 21.5072 6.51339 21.5896 6.37515 21.6613C6.36365 21.6678 6.35165 21.6728 6.33965 21.6788C6.05766 21.8202 5.75479 21.9155 5.44268 21.9613C5.41618 21.9653 5.39018 21.9703 5.36368 21.9733C5.23675 21.9887 5.109 21.9963 4.98119 21.9958C4.95119 21.9958 4.92169 21.9908 4.8917 21.9898C4.78182 21.9865 4.67214 21.9775 4.56321 21.9628C4.52971 21.9578 4.49671 21.9478 4.46321 21.9413C4.37321 21.9248 4.28372 21.9058 4.19522 21.8808L6.46814 16.386ZM8.00059 24.5002C7.72448 24.5002 7.50061 24.2763 7.50061 24.0002C7.50061 23.7241 7.72448 23.5002 8.00059 23.5002C8.27671 23.5002 8.50058 23.7241 8.50058 24.0002C8.50058 24.2763 8.27671 24.5002 8.00059 24.5002ZM13.2724 23.0027L13.2624 22.9907C13.156 22.8697 13.0595 22.7402 12.9739 22.6038C12.9599 22.5818 12.9444 22.5608 12.9309 22.5388C12.851 22.4041 12.7814 22.2635 12.7229 22.1183C12.7114 22.0888 12.6994 22.0593 12.6884 22.0298C12.634 21.8833 12.591 21.7329 12.5599 21.5798C12.5549 21.5538 12.5514 21.5298 12.5469 21.5013C12.5175 21.3374 12.5019 21.1713 12.5004 21.0048C12.5004 20.9173 12.5049 20.8303 12.5129 20.7438C12.5129 20.7353 12.5129 20.7263 12.5129 20.7173C12.669 19.3517 13.7133 18.256 15.0699 18.0344C15.0964 18.0309 15.1199 18.0254 15.1489 18.0224C15.2034 18.0159 15.2584 18.0134 15.3133 18.0099C15.3683 18.0064 15.4373 18.0004 15.5003 18.0004H15.5038C15.6715 18.0019 15.8387 18.0173 16.0038 18.0464C16.0298 18.0504 16.0538 18.0529 16.0813 18.0579C16.2171 18.0858 16.3508 18.1232 16.4813 18.1699C16.5313 18.1879 16.5863 18.2049 16.6368 18.2254C16.7419 18.2696 16.8444 18.3197 16.9438 18.3754C17.0098 18.4124 17.0758 18.4499 17.1393 18.4914C17.2233 18.5464 17.3038 18.6059 17.3823 18.6689C17.4456 18.7202 17.5068 18.7742 17.5658 18.8309C17.6405 18.9011 17.7116 18.9752 17.7788 19.0529C17.8243 19.1064 17.8663 19.1624 17.9083 19.2189C17.9808 19.3148 18.0476 19.415 18.1083 19.5189C18.1303 19.5574 18.1488 19.5979 18.1693 19.6374C18.2373 19.7679 18.2956 19.9033 18.3437 20.0423C18.3477 20.0533 18.3497 20.0653 18.3537 20.0763C18.4077 20.2426 18.447 20.4132 18.4712 20.5863L13.2724 23.0027ZM22.7906 18.5464C22.6135 18.6281 22.5001 18.8053 22.5001 19.0004V21.0003C22.5001 21.2764 22.2762 21.5003 22.0001 21.5003C21.724 21.5003 21.5001 21.2764 21.5001 21.0003V20.0003C21.5001 19.7242 21.2763 19.5004 21.0002 19.5004C20.724 19.5004 20.5002 19.7242 20.5002 20.0003V23.0002C20.5002 23.2764 20.2763 23.5002 20.0002 23.5002C19.7241 23.5002 19.5002 23.2764 19.5002 23.0002L19.4967 20.8753C19.4427 18.8401 17.8601 17.1744 15.8303 17.0164C15.7948 17.0134 15.7583 17.0134 15.7223 17.0109C15.6473 17.0074 15.5748 17.0004 15.5003 17.0004C15.4833 17.0004 15.4668 17.0029 15.4503 17.0029C15.4338 17.0029 15.4163 17.0029 15.4003 17.0029C15.3443 17.0029 15.2899 17.0119 15.2344 17.0154C15.1789 17.0189 15.1094 17.0224 15.0474 17.0294C14.9854 17.0364 14.9204 17.0484 14.8574 17.0589C14.7864 17.0704 14.7154 17.0814 14.6454 17.0964C14.5999 17.1069 14.5554 17.1199 14.5104 17.1314C14.4239 17.1534 14.3374 17.1764 14.2534 17.2044C14.2314 17.2114 14.2104 17.2204 14.1889 17.2279C12.8494 17.6956 11.8568 18.8364 11.579 20.2278C11.5755 20.2448 11.574 20.2628 11.571 20.2778C11.551 20.3868 11.533 20.4968 11.521 20.6088C11.514 20.6763 11.5135 20.7453 11.5105 20.8138C11.5075 20.8823 11.5005 20.9373 11.5005 21.0003V21.0188C11.5005 21.1478 11.509 21.2758 11.522 21.4028C11.526 21.4398 11.533 21.4763 11.5375 21.5133C11.55 21.6058 11.5635 21.6983 11.5825 21.7898C11.592 21.8398 11.6045 21.8858 11.616 21.9338C11.6355 22.0128 11.656 22.0908 11.6795 22.1683C11.6955 22.2183 11.7125 22.2683 11.7295 22.3183C11.7555 22.3913 11.7835 22.4636 11.8135 22.5353C11.8345 22.5853 11.855 22.6353 11.878 22.6853C11.9115 22.7572 11.949 22.8277 11.987 22.8977C12.011 22.9427 12.0335 22.9877 12.0595 23.0317C12.1095 23.1167 12.1655 23.1997 12.222 23.2817C12.2395 23.3067 12.255 23.3317 12.272 23.3582C12.3436 23.4552 12.4193 23.5495 12.4989 23.6412V26.0001C12.4989 26.2763 12.2751 26.5001 11.999 26.5001C11.7228 26.5001 11.499 26.2763 11.499 26.0001C11.499 25.724 11.2751 25.5002 10.999 25.5002C10.7229 25.5002 10.499 25.724 10.499 26.0001V28.5001C10.499 28.7762 10.2751 29 9.99903 29C9.72291 29 9.49904 28.7762 9.49904 28.5001V25.5002C9.49698 25.263 9.32642 25.061 9.09306 25.0192C9.65898 24.4142 9.62723 23.465 9.02225 22.8991C8.41727 22.3332 7.46805 22.3649 6.90219 22.9699C6.33627 23.5749 6.36802 24.5241 6.973 25.09C7.23224 25.3325 7.56904 25.4752 7.92359 25.4927L6.50064 26.1556V25.5002C6.50064 25.224 6.27677 25.0002 6.00066 25.0002C5.72454 25.0002 5.50068 25.224 5.50068 25.5002V26.5001C5.5038 26.5377 5.51136 26.5748 5.52317 26.6106L1.45381 28.5051L2.49128 26.0001C2.49428 26.0001 2.49728 26.0001 2.50078 26.0001H3.50074C3.77686 26.0001 4.00073 25.7763 4.00073 25.5002C4.00073 25.224 3.77686 25.0002 3.50074 25.0002H2.90426L3.80773 22.8157C3.85073 22.8292 3.89473 22.8367 3.93773 22.8487C4.02422 22.8732 4.11072 22.8987 4.19872 22.9157C4.24872 22.9262 4.29872 22.9322 4.34871 22.9407C4.43971 22.9557 4.53121 22.9712 4.6232 22.9797C4.6802 22.9852 4.7372 22.9862 4.7942 22.9892C4.8627 22.9927 4.93069 23.0002 4.99969 23.0002C5.01769 23.0002 5.03469 22.9977 5.05219 22.9977C5.10519 22.9977 5.15819 22.9922 5.21118 22.9897C5.29968 22.9847 5.38768 22.9797 5.47468 22.9692C5.49118 22.9692 5.50767 22.9692 5.52467 22.9657C5.58017 22.9582 5.63467 22.9462 5.68967 22.9362C5.74467 22.9262 5.78967 22.9207 5.83966 22.9102C5.92116 22.8932 6.00066 22.8707 6.08016 22.8482C6.17065 22.8232 6.25965 22.7942 6.34715 22.7627C6.40465 22.7417 6.46314 22.7227 6.51964 22.6992C6.59164 22.6698 6.66164 22.6353 6.73213 22.5993C6.76663 22.5823 6.80213 22.5668 6.83663 22.5493C6.91113 22.5108 6.98313 22.4688 7.05512 22.4253C7.08162 22.4093 7.10862 22.3938 7.13462 22.3753C7.20912 22.3283 7.28162 22.2783 7.35261 22.2253L7.41161 22.1813C7.48611 22.1248 7.55861 22.0663 7.6291 22.0048L7.6606 21.9763C7.96128 21.7077 8.21996 21.3955 8.42808 21.0503C8.44658 21.0193 8.46658 20.9888 8.48458 20.9573C8.51708 20.8998 8.54657 20.8403 8.57657 20.7808C8.60657 20.7213 8.62907 20.6753 8.65357 20.6213C8.67807 20.5673 8.69657 20.5213 8.71657 20.4713C8.74388 20.4026 8.76938 20.3331 8.79307 20.2628C8.80707 20.2203 8.82156 20.1778 8.83406 20.1348C8.85956 20.0498 8.88106 19.9638 8.90056 19.8768C8.90806 19.8433 8.91706 19.8108 8.92356 19.7768C8.94456 19.6699 8.96125 19.5614 8.97356 19.4514C8.97356 19.4344 8.97906 19.4179 8.98056 19.4014C8.98056 19.3949 8.98056 19.3884 8.98356 19.3819C8.98356 19.3649 8.98356 19.3479 8.98356 19.3319C8.99206 19.2229 9.00006 19.1134 9.00006 19.0019C9.00006 18.9624 8.99206 18.9239 8.99106 18.8849C8.98756 18.7849 8.97806 18.6874 8.96756 18.5894C8.95656 18.4834 8.94506 18.3784 8.92556 18.2749C8.90806 18.1834 8.88456 18.0939 8.86106 18.0039C8.83406 17.9009 8.80757 17.7989 8.77307 17.6989C8.74157 17.6084 8.70307 17.5214 8.66507 17.4339C8.62707 17.3464 8.58707 17.2489 8.54007 17.1599C8.49308 17.0709 8.43708 16.9819 8.38258 16.8944C8.33258 16.8159 8.28708 16.7369 8.23258 16.662C8.16759 16.572 8.09409 16.4885 8.02159 16.404C7.96609 16.339 7.91309 16.2725 7.8531 16.211C7.7726 16.1285 7.6841 16.054 7.59611 15.9785C7.53311 15.924 7.47311 15.867 7.40611 15.8165C7.31461 15.747 7.21512 15.687 7.11662 15.625C7.04362 15.579 6.97413 15.53 6.89763 15.4885C6.88163 15.48 6.86763 15.4685 6.85163 15.46L8.01909 12.6381C8.03459 12.6506 8.05109 12.6601 8.06659 12.6721C8.10109 12.6986 8.13709 12.7221 8.17259 12.7476C8.25458 12.8071 8.33708 12.8646 8.42258 12.9171C8.45458 12.9366 8.48758 12.9536 8.52258 12.9721C8.61307 13.0221 8.70457 13.0721 8.79907 13.1186C8.83506 13.1356 8.87156 13.1501 8.90806 13.1656C8.99956 13.2056 9.09156 13.2441 9.18605 13.2766C9.23155 13.2926 9.27805 13.3056 9.32405 13.3201C9.41005 13.3466 9.49604 13.3701 9.58404 13.3926C9.64154 13.4061 9.70004 13.4166 9.75803 13.4276C9.83603 13.4421 9.91403 13.4561 9.99303 13.4661C10.0605 13.4746 10.128 13.4801 10.196 13.4856C10.264 13.4911 10.342 13.4956 10.416 13.4976C10.4445 13.4976 10.473 13.5021 10.502 13.5021C10.548 13.5021 10.5925 13.4966 10.6385 13.4951C10.7035 13.4951 10.769 13.4906 10.8345 13.4851C10.9 13.4796 10.968 13.4716 11.0345 13.4626C11.0845 13.4561 11.1345 13.4536 11.188 13.4451C11.2095 13.4416 11.2295 13.4331 11.251 13.4291C11.4046 13.4006 11.5563 13.3631 11.7055 13.3166C11.7885 13.2906 11.8675 13.2586 11.9475 13.2276C12.0165 13.2011 12.084 13.1726 12.151 13.1426C12.4633 13.0018 12.756 12.8211 13.0219 12.6051L13.0719 12.5611C13.353 12.3262 13.6002 12.0535 13.8064 11.7506C13.8164 11.7361 13.8254 11.7211 13.8349 11.7071C13.9516 11.5302 14.0539 11.3443 14.1409 11.1511C14.1599 11.1091 14.1799 11.0681 14.1974 11.0256C14.2344 10.9356 14.2679 10.8451 14.2974 10.7516C14.3349 10.6382 14.3664 10.5222 14.3934 10.4047C14.4014 10.3687 14.4159 10.3352 14.4229 10.2992C14.4354 10.2347 14.4399 10.1697 14.4494 10.1052C14.4609 10.0292 14.4739 9.95517 14.4809 9.87768C14.4849 9.83218 14.4854 9.78768 14.4879 9.74268C14.4924 9.66268 14.4999 9.58369 14.4999 9.50269C14.4999 9.47969 14.4969 9.45719 14.4964 9.43369C14.4964 9.39569 14.4924 9.35819 14.4909 9.32019C14.4859 9.2117 14.4779 9.1047 14.4644 8.9987C14.4599 8.96221 14.4534 8.92621 14.4479 8.89021C14.4319 8.78571 14.4124 8.68221 14.3884 8.58022C14.3789 8.53972 14.3679 8.50022 14.3574 8.46022C14.3321 8.36623 14.3034 8.27373 14.2714 8.18273C14.2549 8.13573 14.2384 8.08924 14.2214 8.04324C14.1899 7.96324 14.1549 7.88474 14.1184 7.80774C14.0939 7.75425 14.0684 7.70125 14.0424 7.64925C14.0074 7.58275 13.9689 7.51875 13.9304 7.45476C13.8919 7.39076 13.8634 7.33876 13.8259 7.28326C13.7884 7.22776 13.7494 7.17827 13.7109 7.12627C13.6724 7.07427 13.6324 7.01277 13.5879 6.95877C13.0936 6.35817 12.4346 5.91506 11.692 5.68382C11.677 5.67932 11.661 5.67632 11.646 5.67182C11.5385 5.63982 11.43 5.61082 11.32 5.58782C11.276 5.57882 11.231 5.57382 11.1865 5.56582C11.112 5.55282 11.0365 5.53782 10.9625 5.52932L11.237 4.86534H11.2735C16.5678 4.89865 21.4152 7.83968 23.8901 12.5201C23.7446 12.5505 23.6206 12.6449 23.5526 12.7771L23.0526 13.777C22.9292 14.0242 23.0295 14.3246 23.2766 14.448C23.5237 14.5715 23.8241 14.4711 23.9476 14.224L24.3375 13.4441C24.8834 14.682 25.2465 15.9926 25.4155 17.3349L22.7906 18.5464ZM26.365 16.8964C25.2398 9.5755 19.0538 4.09799 11.6505 3.86738L12.8274 1.02247L15.0614 1.16197C22.7685 1.65695 28.8186 7.96105 28.9964 15.682L26.365 16.8964Z" fill="#BDBDBD"/>
<path d="M14.9476 14.7773C14.8242 14.5302 14.5238 14.4299 14.2767 14.5533L13.2767 15.0533C13.0296 15.1767 12.9293 15.4771 13.0527 15.7243C13.1761 15.9714 13.4766 16.0717 13.7237 15.9483L14.7236 15.4483C14.9708 15.3248 15.0711 15.0244 14.9476 14.7773Z" fill="#BDBDBD"/>
<path d="M19.2235 14.5533L18.2235 14.0533C17.9764 13.9299 17.676 14.0302 17.5526 14.2773C17.4291 14.5244 17.5294 14.8248 17.7766 14.9483L18.7765 15.4483C19.0236 15.5717 19.3241 15.4714 19.4475 15.2243C19.5709 14.9771 19.4707 14.6767 19.2235 14.5533Z" fill="#BDBDBD"/>
<path d="M16.7236 7.05574C16.4765 6.93231 16.1761 7.03262 16.0526 7.27974L15.5527 8.2797C15.4292 8.52669 15.5293 8.827 15.7763 8.95049C15.7764 8.95055 15.7765 8.95062 15.7766 8.95068C16.0236 9.07418 16.3239 8.97405 16.4474 8.72706C16.4475 8.72694 16.4476 8.72681 16.4476 8.72669L16.9476 7.72672C17.071 7.4796 16.9708 7.17918 16.7236 7.05574Z" fill="#BDBDBD"/>
<path d="M21.9469 9.77729C21.8235 9.53018 21.5231 9.42987 21.2759 9.5533L20.276 10.0533C20.0289 10.1765 19.9284 10.4766 20.0515 10.7238C20.1362 10.8938 20.31 11.0011 20.5 11.0008C20.5773 11.0008 20.6537 10.9828 20.723 10.9483L21.7229 10.4483C21.9701 10.3248 22.0704 10.0244 21.9469 9.77729Z" fill="#BDBDBD"/>
<path d="M10.7238 21.5528L9.72379 21.0528C9.47667 20.9294 9.17625 21.0297 9.05281 21.2768C8.92938 21.5239 9.02969 21.8243 9.27681 21.9478L10.2768 22.4478C10.5239 22.5712 10.8243 22.4709 10.9477 22.2238C11.0712 21.9767 10.9709 21.6762 10.7238 21.5528Z" fill="#BDBDBD"/>
<path d="M21.4474 17.7744C21.3239 17.5272 21.0235 17.4269 20.7764 17.5504L19.7764 18.0504C19.5293 18.1738 19.429 18.4742 19.5524 18.7213C19.6759 18.9684 19.9763 19.0688 20.2234 18.9453L21.2234 18.4453C21.4706 18.3219 21.5708 18.0215 21.4474 17.7744Z" fill="#BDBDBD"/>
<path d="M16.5001 10.5005C15.6717 10.5005 15.0001 11.172 15.0001 12.0004C15.0001 12.8288 15.6717 13.5004 16.5001 13.5004C17.3285 13.5004 18 12.8288 18 12.0004C18 11.172 17.3285 10.5005 16.5001 10.5005ZM16.5001 12.5004C16.224 12.5004 16.0001 12.2766 16.0001 12.0004C16.0001 11.7243 16.224 11.5005 16.5001 11.5005C16.7762 11.5005 17 11.7243 17 12.0004C17 12.2766 16.7762 12.5004 16.5001 12.5004Z" fill="#BDBDBD"/>
<path d="M11.0002 15.0005C10.1718 15.0005 9.50024 15.672 9.50024 16.5004C9.50024 17.3288 10.1718 18.0004 11.0002 18.0004C11.8286 18.0004 12.5001 17.3288 12.5001 16.5004C12.5001 15.672 11.8286 15.0005 11.0002 15.0005ZM11.0002 17.0004C10.7241 17.0004 10.5002 16.7766 10.5002 16.5004C10.5002 16.2243 10.7241 16.0005 11.0002 16.0005C11.2763 16.0005 11.5002 16.2243 11.5002 16.5004C11.5002 16.7766 11.2763 17.0004 11.0002 17.0004Z" fill="#BDBDBD"/>
<path d="M21.9998 14.5005C21.1714 14.5005 20.4999 15.172 20.4999 16.0004C20.4999 16.8288 21.1714 17.5004 21.9998 17.5004C22.8282 17.5004 23.4998 16.8288 23.4998 16.0004C23.4998 15.172 22.8282 14.5005 21.9998 14.5005ZM21.9998 16.5004C21.7237 16.5004 21.4998 16.2765 21.4998 16.0004C21.4998 15.7243 21.7237 15.5005 21.9998 15.5005C22.2759 15.5005 22.4998 15.7243 22.4998 16.0004C22.4998 16.2765 22.2759 16.5004 21.9998 16.5004Z" fill="#BDBDBD"/>
</g>
<defs>
<clipPath id="clip0">
<rect width="30" height="30" fill="white"/>
</clipPath>
</defs>
</svg>
