<svg width="30" height="30" viewBox="0 0 30 30" fill="none" xmlns="http://www.w3.org/2000/svg">
<g clip-path="url(#clip0)">
<path d="M2.49994 19.7652V20.8852L0.499944 22.5302C-0.0633929 23.0314 -0.128669 23.8887 0.352295 24.4693C0.833259 25.05 1.68769 25.1454 2.28494 24.6852L2.49994 24.5002V25.2703C1.06494 26.1752 0.544944 26.5002 0.499944 26.5303C-0.102046 27.0163 -0.196066 27.8983 0.289944 28.5002C0.775955 29.1022 1.65795 29.1963 2.25994 28.7102L3.64994 27.8652C5.02994 29.1752 7.45994 30.0002 9.99994 30.0002C14.2749 30.0002 17.4999 27.8502 17.4999 25.0002V19.5002C29.8949 12.0002 29.3849 12.2952 29.4349 12.2552C29.7733 11.9764 29.9782 11.5676 29.9991 11.1296C30.0201 10.6916 29.8551 10.2652 29.5449 9.95525C28.9913 9.40346 28.112 9.35401 27.4999 9.84025L17.4999 16.0002C17.4999 12.6802 17.4999 12.8502 17.4299 12.4402L29.4299 2.74525C29.7641 2.46726 29.9667 2.06209 29.9885 1.62796C30.0104 1.19384 29.8495 0.770379 29.5449 0.460246C28.9814 -0.113909 28.0708 -0.157477 27.4549 0.360246L15.4999 10.2002C15.3449 10.1152 15.1799 10.0302 14.9999 9.95025V4.00025C14.9999 1.68025 11.8449 0.00024627 7.49995 0.00024627C3.15494 0.00024627 -5.58663e-05 1.68525 -5.58663e-05 4.00025V16.0002C-5.58663e-05 17.5002 0.909944 18.8352 2.49994 19.7652ZM6.30494 10.5002L7.39495 11.5002C4.72994 12.7552 6.02494 15.5002 9.99994 15.5002C10.5244 15.5018 11.0474 15.4465 11.5599 15.3352L12.4999 16.2052C5.84494 17.8402 -0.215056 12.5702 6.30494 10.5002ZM9.99994 14.5002C8.13995 14.5002 6.99995 13.7702 6.99995 13.2502C6.99995 12.7302 8.13995 12.0002 9.99994 12.0002C11.8599 12.0002 12.9999 12.7252 12.9999 13.2502C12.9999 13.7752 11.8599 14.5002 9.99994 14.5002ZM1.65494 23.9102C1.4855 24.007 1.271 23.9673 1.14732 23.8164C1.02364 23.6655 1.02686 23.4474 1.15494 23.3002L2.49994 22.1802V23.2302L1.65494 23.9102ZM3.49994 15.2052C5.28994 17.0652 9.24494 18.1302 12.9999 17.1102V18.7952L3.49994 24.6702V15.2052ZM4.54494 27.3253L12.9999 22.2052V28.5653C9.93495 29.5252 6.33495 28.8302 4.54494 27.3253ZM16.4999 25.0002C16.4999 26.3052 15.5299 27.4402 13.9999 28.1702V21.6002L16.4999 20.1002V25.0002ZM28.0949 10.6302C28.3241 10.43 28.6722 10.4535 28.8724 10.6827C29.0727 10.9119 29.0491 11.26 28.8199 11.4602C-0.410055 29.1552 1.55494 28.0302 1.33994 28.0002C1.19063 27.9751 1.06779 27.8689 1.02149 27.7247C0.975194 27.5805 1.01317 27.4226 1.11994 27.3153C29.2849 9.90025 28.0449 10.6752 28.0949 10.6302ZM13.9999 18.1752V16.7802C14.937 16.4415 15.7898 15.9042 16.4999 15.2052V16.6302L13.9999 18.1752ZM13.6099 15.8602L12.6349 14.9702C15.2649 13.7052 13.9549 11.0002 9.99994 11.0002C9.49591 10.9996 8.99319 11.0515 8.49994 11.1552L7.49995 10.2252C8.32472 10.0745 9.16151 9.99917 9.99994 10.0002C13.6449 10.0002 16.4999 11.3152 16.4999 13.0002C16.4999 14.0502 15.3799 15.1752 13.6099 15.8602ZM28.1099 1.13025C28.2654 1.00699 28.4747 0.976006 28.6592 1.04897C28.8436 1.12193 28.9751 1.28775 29.0042 1.48397C29.0332 1.68019 28.9554 1.87699 28.7999 2.00025L16.9999 11.5002C16.8126 11.2337 16.5907 10.9933 16.3399 10.7852L28.1099 1.13025ZM4.49994 10.2052V8.11025C8.27495 9.13525 12.2199 8.05525 13.9999 6.20525V9.57025C11.2349 8.69525 7.04495 8.77525 4.49994 10.2052ZM13.9999 4.00025C13.9999 5.65025 11.2199 7.50025 7.49995 7.50025C6.65753 7.50197 5.81803 7.40123 4.99994 7.20025L5.94494 6.33525C6.45581 6.44615 6.97718 6.50147 7.49995 6.50025C11.4999 6.50025 12.7349 3.75525 10.1049 2.50025L11.1949 1.50025C12.8999 2.05525 13.9999 2.96025 13.9999 4.00025ZM10.4999 4.25025C10.4999 4.75025 9.35995 5.50025 7.49995 5.50025C5.63995 5.50025 4.49994 4.77525 4.49994 4.25525C4.49994 3.73525 5.63995 3.00025 7.49995 3.00025C9.35995 3.00025 10.4999 3.73025 10.4999 4.25525V4.25025ZM7.49995 1.00025C8.3484 0.99734 9.19532 1.07266 10.0299 1.22525L8.99994 2.16025C8.50687 2.05486 8.00415 2.00124 7.49995 2.00025C3.49994 2.00025 2.27494 4.72525 4.86494 5.97025L3.88994 6.86025C2.11994 6.17525 0.999944 5.05025 0.999944 4.00025C0.999944 2.32025 3.85494 1.00025 7.49995 1.00025ZM0.999944 6.20525C1.71007 6.90424 2.56287 7.4415 3.49994 7.78025V10.9252C2.88849 11.4446 2.52524 12.1984 2.49994 13.0002V18.5752C1.60831 18.0145 1.04793 17.0525 0.999944 16.0002V6.20525Z" fill="#BDBDBD"/>
</g>
<defs>
<clipPath id="clip0">
<rect width="30" height="30" fill="white"/>
</clipPath>
</defs>
</svg>
